<?xml version="1.0" encoding="UTF-8"?>
<svg xmlns="http://www.w3.org/2000/svg" xmlns:xlink="http://www.w3.org/1999/xlink" width="24px" height="24px" viewBox="0 0 24 24" version="1.1">
<g id="surface1">
<path style=" stroke:none;fill-rule:nonzero;fill:rgb(0%,0%,0%);fill-opacity:1;" d="M 10.378906 5.339844 L 13.621094 5.339844 C 13.828125 5.339844 13.996094 5.171875 13.996094 4.964844 C 13.996094 4.757812 13.828125 4.589844 13.621094 4.589844 L 10.378906 4.589844 C 10.171875 4.589844 10.003906 4.757812 10.003906 4.964844 C 10.003906 5.171875 10.171875 5.339844 10.378906 5.339844 Z M 10.378906 5.339844 "/>
<path style=" stroke:none;fill-rule:nonzero;fill:rgb(0%,0%,0%);fill-opacity:1;" d="M 10.378906 7.027344 L 13.621094 7.027344 C 13.828125 7.027344 13.996094 6.859375 13.996094 6.652344 C 13.996094 6.445312 13.828125 6.277344 13.621094 6.277344 L 10.378906 6.277344 C 10.171875 6.277344 10.003906 6.445312 10.003906 6.652344 C 10.003906 6.859375 10.171875 7.027344 10.378906 7.027344 Z M 10.378906 7.027344 "/>
<path style=" stroke:none;fill-rule:nonzero;fill:rgb(0%,0%,0%);fill-opacity:1;" d="M 10.378906 8.710938 L 13.621094 8.710938 C 13.828125 8.710938 13.996094 8.542969 13.996094 8.335938 C 13.996094 8.128906 13.828125 7.960938 13.621094 7.960938 L 10.378906 7.960938 C 10.171875 7.960938 10.003906 8.128906 10.003906 8.335938 C 10.003906 8.542969 10.171875 8.710938 10.378906 8.710938 Z M 10.378906 8.710938 "/>
<path style=" stroke:none;fill-rule:nonzero;fill:rgb(0%,0%,0%);fill-opacity:1;" d="M 10.378906 10.402344 L 13.621094 10.402344 C 13.828125 10.402344 13.996094 10.234375 13.996094 10.027344 C 13.996094 9.820312 13.828125 9.652344 13.621094 9.652344 L 10.378906 9.652344 C 10.171875 9.652344 10.003906 9.820312 10.003906 10.027344 C 10.003906 10.234375 10.171875 10.402344 10.378906 10.402344 Z M 10.378906 10.402344 "/>
<path style=" stroke:none;fill-rule:nonzero;fill:rgb(0%,0%,0%);fill-opacity:1;" d="M 18.601562 9.128906 L 18.226562 8.902344 C 17.707031 8.597656 17.039062 8.765625 16.726562 9.277344 C 16.726562 9.195312 16.726562 9.113281 16.695312 9.03125 L 15.890625 4.234375 C 15.773438 3.335938 15.019531 2.652344 14.113281 2.625 L 9.886719 2.625 C 8.980469 2.652344 8.226562 3.335938 8.109375 4.234375 L 7.3125 9.039062 C 7.3125 9.121094 7.289062 9.199219 7.28125 9.28125 C 6.96875 8.765625 6.300781 8.597656 5.78125 8.90625 L 5.40625 9.132812 C 4.894531 9.441406 4.714844 10.101562 5.003906 10.632812 L 5.894531 12.183594 C 5.855469 12.292969 5.832031 12.410156 5.832031 12.523438 L 5.832031 13.125 C 5.832031 13.683594 6.285156 14.132812 6.84375 14.132812 L 10.703125 14.132812 L 10.703125 15.050781 C 10.703125 15.34375 10.863281 15.613281 11.117188 15.75 L 11.117188 16.078125 L 8.59375 16.078125 C 7.390625 16.078125 6.417969 17.054688 6.417969 18.257812 L 6.417969 18.304688 C 5.785156 18.695312 5.492188 19.460938 5.695312 20.175781 C 5.898438 20.890625 6.550781 21.382812 7.296875 21.382812 C 8.039062 21.382812 8.691406 20.890625 8.898438 20.175781 C 9.101562 19.460938 8.804688 18.695312 8.175781 18.304688 L 8.175781 18.257812 C 8.171875 18.144531 8.214844 18.035156 8.292969 17.957031 C 8.371094 17.875 8.480469 17.832031 8.59375 17.835938 L 11.117188 17.835938 L 11.117188 18.304688 C 10.441406 18.730469 10.164062 19.574219 10.457031 20.316406 C 10.75 21.058594 11.527344 21.492188 12.3125 21.34375 C 13.097656 21.195312 13.664062 20.507812 13.664062 19.710938 C 13.664062 19.136719 13.367188 18.605469 12.882812 18.304688 L 12.882812 17.835938 L 15.40625 17.835938 C 15.519531 17.832031 15.628906 17.875 15.707031 17.957031 C 15.785156 18.035156 15.828125 18.144531 15.824219 18.257812 L 15.824219 18.304688 C 15.152344 18.730469 14.875 19.574219 15.167969 20.316406 C 15.460938 21.058594 16.238281 21.488281 17.023438 21.339844 C 17.804688 21.191406 18.375 20.507812 18.375 19.710938 C 18.375 19.136719 18.074219 18.605469 17.585938 18.304688 L 17.585938 18.257812 C 17.585938 17.054688 16.613281 16.078125 15.410156 16.078125 L 12.882812 16.078125 L 12.882812 15.75 C 13.136719 15.613281 13.296875 15.347656 13.296875 15.054688 L 13.296875 14.136719 L 17.164062 14.136719 C 17.722656 14.136719 18.175781 13.683594 18.175781 13.125 L 18.175781 12.535156 C 18.175781 12.417969 18.152344 12.300781 18.113281 12.191406 L 19.003906 10.640625 C 19.300781 10.109375 19.121094 9.441406 18.601562 9.128906 Z M 8.050781 9.160156 L 8.851562 4.355469 C 8.910156 3.820312 9.347656 3.40625 9.886719 3.375 L 14.113281 3.375 C 14.652344 3.40625 15.089844 3.820312 15.148438 4.355469 L 15.949219 9.160156 C 16.050781 9.832031 15.9375 10.515625 15.625 11.113281 C 15.550781 11.269531 15.445312 11.40625 15.320312 11.523438 L 8.679688 11.523438 C 8.550781 11.402344 8.445312 11.257812 8.363281 11.101562 C 8.058594 10.5 7.953125 9.824219 8.050781 9.160156 Z M 5.773438 9.777344 L 6.148438 9.550781 C 6.320312 9.460938 6.53125 9.519531 6.636719 9.683594 L 7.703125 11.523438 L 6.835938 11.523438 C 6.691406 11.523438 6.550781 11.554688 6.421875 11.617188 L 5.644531 10.265625 C 5.554688 10.09375 5.609375 9.878906 5.773438 9.777344 Z M 7.273438 20.625 C 6.769531 20.625 6.359375 20.214844 6.359375 19.710938 C 6.359375 19.203125 6.769531 18.796875 7.273438 18.796875 C 7.78125 18.796875 8.191406 19.203125 8.191406 19.710938 C 8.191406 20.207031 7.792969 20.613281 7.292969 20.625 Z M 12 20.625 C 11.496094 20.625 11.085938 20.214844 11.085938 19.710938 C 11.085938 19.203125 11.496094 18.796875 12 18.796875 C 12.503906 18.796875 12.914062 19.203125 12.914062 19.710938 C 12.914062 20.214844 12.503906 20.625 12 20.625 Z M 16.707031 20.625 C 16.203125 20.621094 15.792969 20.210938 15.796875 19.707031 C 15.796875 19.203125 16.207031 18.792969 16.710938 18.796875 C 17.214844 18.796875 17.625 19.207031 17.625 19.710938 C 17.625 19.953125 17.527344 20.1875 17.355469 20.359375 C 17.183594 20.53125 16.949219 20.625 16.707031 20.625 Z M 15.40625 16.828125 C 16.117188 16.828125 16.71875 17.351562 16.816406 18.054688 C 16.777344 18.054688 16.742188 18.054688 16.707031 18.054688 C 16.652344 18.054688 16.605469 18.054688 16.554688 18.054688 C 16.46875 17.492188 15.976562 17.074219 15.40625 17.082031 L 12.507812 17.082031 C 12.300781 17.082031 12.132812 17.25 12.132812 17.457031 L 12.132812 18.054688 C 12.085938 18.054688 12.046875 18.054688 12 18.054688 C 11.953125 18.054688 11.914062 18.054688 11.867188 18.054688 L 11.867188 17.457031 C 11.867188 17.25 11.699219 17.082031 11.492188 17.082031 L 8.59375 17.082031 C 8.023438 17.074219 7.53125 17.492188 7.445312 18.054688 C 7.394531 18.054688 7.347656 18.054688 7.292969 18.054688 C 7.257812 18.054688 7.222656 18.054688 7.183594 18.054688 C 7.28125 17.351562 7.882812 16.828125 8.59375 16.828125 L 11.492188 16.828125 C 11.699219 16.828125 11.867188 16.660156 11.867188 16.453125 L 11.867188 15.847656 L 12.132812 15.847656 L 12.132812 16.453125 C 12.132812 16.660156 12.300781 16.828125 12.507812 16.828125 Z M 12.546875 15.054688 L 11.492188 15.097656 L 11.453125 14.136719 L 12.546875 14.136719 Z M 17.421875 13.128906 C 17.421875 13.199219 17.394531 13.265625 17.34375 13.3125 C 17.296875 13.363281 17.230469 13.386719 17.160156 13.386719 L 6.835938 13.386719 C 6.765625 13.386719 6.699219 13.363281 6.652344 13.3125 C 6.601562 13.265625 6.574219 13.199219 6.574219 13.128906 L 6.574219 12.535156 C 6.574219 12.390625 6.691406 12.273438 6.835938 12.273438 C 16.445312 12.273438 15.933594 12.273438 17.164062 12.273438 C 17.308594 12.273438 17.425781 12.390625 17.425781 12.535156 Z M 18.375 10.265625 L 17.578125 11.625 C 17.449219 11.5625 17.308594 11.53125 17.164062 11.53125 L 16.285156 11.53125 L 17.347656 9.691406 C 17.453125 9.527344 17.664062 9.46875 17.835938 9.558594 L 18.210938 9.785156 C 18.382812 9.875 18.457031 10.089844 18.375 10.265625 Z M 18.375 10.265625 "/>
</g>
</svg>
