<?xml version="1.0" encoding="UTF-8"?>
<svg xmlns="http://www.w3.org/2000/svg" xmlns:xlink="http://www.w3.org/1999/xlink" width="24px" height="24px" viewBox="0 0 24 24" version="1.1">
<g id="surface1">
<path style=" stroke:none;fill-rule:nonzero;fill:rgb(0%,0%,0%);fill-opacity:1;" d="M 18.472656 12.335938 L 16.464844 12.335938 L 15.921875 3.144531 C 15.894531 2.691406 15.519531 2.335938 15.0625 2.335938 L 8.679688 2.335938 C 8.226562 2.335938 7.851562 2.6875 7.820312 3.140625 L 7.222656 12.335938 L 5.527344 12.335938 C 5.257812 12.335938 5.039062 12.554688 5.039062 12.824219 L 5.039062 14.578125 C 5.039062 14.847656 5.257812 15.066406 5.527344 15.066406 L 6.179688 15.066406 L 6.179688 15.699219 C 6.179688 16.070312 6.480469 16.371094 6.851562 16.371094 L 7.210938 16.371094 L 7.210938 21.300781 C 7.210938 21.503906 7.375 21.664062 7.574219 21.664062 L 8.042969 21.664062 C 8.246094 21.664062 8.40625 21.503906 8.40625 21.300781 L 8.40625 16.371094 L 15.28125 16.371094 L 15.28125 21.300781 C 15.28125 21.503906 15.445312 21.664062 15.644531 21.664062 L 16.113281 21.664062 C 16.3125 21.664062 16.476562 21.503906 16.476562 21.300781 L 16.476562 16.371094 L 17.148438 16.371094 C 17.519531 16.371094 17.820312 16.070312 17.820312 15.699219 L 17.820312 15.066406 L 18.472656 15.066406 C 18.742188 15.066406 18.960938 14.847656 18.960938 14.578125 L 18.960938 12.824219 C 18.960938 12.554688 18.742188 12.335938 18.472656 12.335938 Z M 8.15625 3.164062 C 8.175781 2.886719 8.40625 2.671875 8.679688 2.671875 L 15.0625 2.671875 C 15.339844 2.671875 15.570312 2.890625 15.585938 3.164062 L 16.128906 12.335938 L 7.5625 12.335938 Z M 8.070312 21.300781 C 8.070312 21.316406 8.058594 21.328125 8.042969 21.328125 L 7.574219 21.328125 C 7.5625 21.328125 7.550781 21.316406 7.550781 21.300781 L 7.550781 16.371094 L 8.070312 16.371094 Z M 16.140625 21.300781 C 16.140625 21.316406 16.128906 21.328125 16.113281 21.328125 L 15.644531 21.328125 C 15.628906 21.328125 15.617188 21.316406 15.617188 21.300781 L 15.617188 16.371094 L 16.140625 16.371094 Z M 17.480469 15.699219 C 17.480469 15.882812 17.332031 16.03125 17.148438 16.03125 L 6.851562 16.03125 C 6.667969 16.03125 6.519531 15.882812 6.519531 15.699219 L 6.519531 15.066406 L 17.480469 15.066406 Z M 18.625 14.578125 C 18.625 14.660156 18.554688 14.730469 18.472656 14.730469 L 5.527344 14.730469 C 5.445312 14.730469 5.375 14.660156 5.375 14.578125 L 5.375 12.824219 C 5.375 12.738281 5.445312 12.671875 5.527344 12.671875 L 18.472656 12.671875 C 18.554688 12.671875 18.625 12.738281 18.625 12.824219 Z M 18.625 14.578125 "/>
</g>
</svg>
