<?xml version="1.0" encoding="UTF-8"?>
<svg xmlns="http://www.w3.org/2000/svg" xmlns:xlink="http://www.w3.org/1999/xlink" width="24px" height="24px" viewBox="0 0 24 24" version="1.1">
<g id="surface1">
<path style=" stroke:none;fill-rule:nonzero;fill:rgb(0%,0%,0%);fill-opacity:1;" d="M 16.84375 12.152344 C 16.636719 12.152344 16.46875 11.984375 16.46875 11.777344 L 16.46875 6.292969 C 16.46875 5.238281 15.613281 4.382812 14.558594 4.382812 L 9.449219 4.382812 C 8.394531 4.382812 7.535156 5.238281 7.535156 6.292969 L 7.535156 11.777344 C 7.535156 11.984375 7.367188 12.152344 7.160156 12.152344 C 6.953125 12.152344 6.785156 11.984375 6.785156 11.777344 L 6.785156 6.292969 C 6.785156 4.824219 7.980469 3.632812 9.449219 3.632812 L 14.558594 3.632812 C 16.027344 3.632812 17.21875 4.824219 17.21875 6.292969 L 17.21875 11.777344 C 17.21875 11.984375 17.050781 12.152344 16.84375 12.152344 Z M 16.84375 12.152344 "/>
<path style=" stroke:none;fill-rule:nonzero;fill:rgb(0%,0%,0%);fill-opacity:1;" d="M 17.21875 18.964844 L 6.785156 18.964844 L 6.785156 13.691406 L 17.21875 13.691406 Z M 7.535156 18.214844 L 16.46875 18.214844 L 16.46875 14.441406 L 7.535156 14.441406 Z M 7.535156 18.214844 "/>
<path style=" stroke:none;fill-rule:nonzero;fill:rgb(0%,0%,0%);fill-opacity:1;" d="M 7.535156 18.964844 L 4.703125 18.964844 L 4.703125 12.777344 C 3.527344 12.59375 2.621094 11.574219 2.621094 10.347656 C 2.621094 8.992188 3.722656 7.890625 5.078125 7.890625 C 6.433594 7.890625 7.535156 8.992188 7.535156 10.347656 Z M 5.453125 18.214844 L 6.785156 18.214844 L 6.785156 10.347656 C 6.785156 9.40625 6.019531 8.640625 5.078125 8.640625 C 4.136719 8.640625 3.371094 9.40625 3.371094 10.347656 C 3.371094 11.289062 4.136719 12.054688 5.078125 12.054688 L 5.453125 12.054688 Z M 5.453125 18.214844 "/>
<path style=" stroke:none;fill-rule:nonzero;fill:rgb(0%,0%,0%);fill-opacity:1;" d="M 19.300781 18.964844 L 16.46875 18.964844 L 16.46875 10.347656 C 16.46875 8.992188 17.574219 7.890625 18.925781 7.890625 C 20.28125 7.890625 21.382812 8.992188 21.382812 10.347656 C 21.382812 11.574219 20.480469 12.59375 19.300781 12.777344 Z M 17.21875 18.214844 L 18.550781 18.214844 L 18.550781 12.054688 L 18.925781 12.054688 C 19.867188 12.054688 20.632812 11.289062 20.632812 10.347656 C 20.632812 9.40625 19.867188 8.640625 18.925781 8.640625 C 17.984375 8.640625 17.21875 9.40625 17.21875 10.347656 Z M 17.21875 18.214844 "/>
<path style=" stroke:none;fill-rule:nonzero;fill:rgb(0%,0%,0%);fill-opacity:1;" d="M 7.160156 20.105469 C 6.953125 20.105469 6.785156 19.9375 6.785156 19.730469 L 6.785156 18.90625 C 6.785156 18.699219 6.953125 18.53125 7.160156 18.53125 C 7.367188 18.53125 7.535156 18.699219 7.535156 18.90625 L 7.535156 19.730469 C 7.535156 19.9375 7.367188 20.105469 7.160156 20.105469 Z M 7.160156 20.105469 "/>
<path style=" stroke:none;fill-rule:nonzero;fill:rgb(0%,0%,0%);fill-opacity:1;" d="M 16.84375 20.105469 C 16.636719 20.105469 16.46875 19.9375 16.46875 19.730469 L 16.46875 18.90625 C 16.46875 18.699219 16.636719 18.53125 16.84375 18.53125 C 17.050781 18.53125 17.21875 18.699219 17.21875 18.90625 L 17.21875 19.730469 C 17.21875 19.9375 17.050781 20.105469 16.84375 20.105469 Z M 16.84375 20.105469 "/>
</g>
</svg>
